# xmcd
#
# Track frame offsets:
#	187
#	31310
#	56600
#	81400
#	118655
#	139780
#	171810
#	207555
#	227785
#	251375
#	272592
#
# Disc length: 4353 seconds
#
# Revision: 1
# Processed by: cddbd v1.5PL3 Copyright (c) Steve Scherf et al.
# Submitted via: dBpowerAMP V4.0
#
DISCID=9a10ff0b
DTITLE=Matteson-PhillipsTubajazzConsort - Superhorn;MarkMJS-57626CD
DYEAR=1988
DGENRE=Jazz
TTITLE0=Stompin'AtTheSavoy(Sampson,Racaf,Goodman,Webb;arrRichMatteson;1988,Matteson-PhillipsTubajazzConsort)
TTITLE1=LittleOleSofty(RMatteson;arrRichMatteson;1988,Matteson-PhillipsTubajazzConsort)
TTITLE2=Noreen'sNocturn(OscarPeterson;arrJackPeterson;1988,Matteson-PhillipsTubajazzConsort)
TTITLE3=ThingsAin'tWhatTheyUsedToBe(DukeEllington;arrRichMatteson;1988,Matteson-PhillipsTubajazzConsort)
TTITLE4=GeorgiaOnMyMind(HoagyCarmichael;arrRichMatteson;1988,Matteson-PhillipsTubajazzConsort)
TTITLE5=WaltzingMatilda(arrRichMatteson;1988,Matteson-PhillipsTubajazzConsort)
TTITLE6=GregoryIsHere(HoraceSilver;arrRichMatteson;1988,Matteson-PhillipsTubajazzConsort)
TTITLE7=LuckySouthern(KeithJarrett;arrRichMatteson;1988,Matteson-PhillipsTubajazzConsort)
TTITLE8=Summertime(GeorgeGershwin;arrRichMatteson;1988,Matteson-PhillipsTubajazzConsort)
TTITLE9=Oleo(SonnyRollins;arrRichMatteson;1988,Matteson-PhillipsTubajazzConsort)
TTITLE10=Spoofy(RMatteson;arrRichMatteson;1988,Matteson-PhillipsTubajazzConsort)
EXTD=corrected
EXTT0=
EXTT1=
EXTT2=
EXTT3=
EXTT4=
EXTT5=
EXTT6=
EXTT7=
EXTT8=
EXTT9=
EXTT10=
PLAYORDER=
